<svg xmlns="http://www.w3.org/2000/svg" width="268" height="32" fill="none" viewBox="0 0 268 32">
  <path fill="#fff" d="M26.082 25.371A14.027 14.027 0 0 0 29.6 16.98h-2.98a11.115 11.115 0 0 1-2.644 6.31l2.106 2.082ZM29.6 15.097a14.029 14.029 0 0 0-3.518-8.393l-2.106 2.082a11.119 11.119 0 0 1 2.644 6.31h2.98Zm-4.864-9.724a14.363 14.363 0 0 0-8.49-3.477v2.945a11.381 11.381 0 0 1 6.384 2.614l2.106-2.082ZM14.342 1.896a14.36 14.36 0 0 0-8.49 3.477l2.106 2.082a11.385 11.385 0 0 1 6.384-2.614V1.896ZM4.506 6.704a14.029 14.029 0 0 0-3.518 8.392h2.98a11.115 11.115 0 0 1 2.644-6.31L4.506 6.704ZM.988 16.978a14.025 14.025 0 0 0 3.518 8.393l2.106-2.082a11.12 11.12 0 0 1-2.644-6.31H.988Zm4.864 9.724a14.364 14.364 0 0 0 8.49 3.477v-2.945a11.381 11.381 0 0 1-6.384-2.614l-2.106 2.082Zm18.884 0L22.63 24.62a11.387 11.387 0 0 1-6.384 2.614v2.945a14.36 14.36 0 0 0 8.49-3.477Z" opacity=".2"/>
  <path fill="#fff" d="M22.83 22.157a9.534 9.534 0 0 0 2.168-5.177h-2.164a7.432 7.432 0 0 1-1.535 3.664l1.53 1.513Zm2.168-7.06A9.537 9.537 0 0 0 22.83 9.92l-1.53 1.513a7.434 7.434 0 0 1 1.536 3.665H25v-.001Zm-3.515-6.508a9.768 9.768 0 0 0-5.237-2.144v2.139a7.608 7.608 0 0 1 3.707 1.518l1.53-1.512v-.001ZM14.34 6.445a9.767 9.767 0 0 0-5.237 2.144l1.53 1.512a7.613 7.613 0 0 1 3.707-1.518V6.444v.001ZM7.757 9.92a9.535 9.535 0 0 0-2.168 5.177h2.163a7.434 7.434 0 0 1 1.536-3.665L7.758 9.92v.001ZM5.59 16.98a9.537 9.537 0 0 0 2.168 5.177l1.53-1.513a7.433 7.433 0 0 1-1.535-3.664H5.588Zm3.515 6.508a9.77 9.77 0 0 0 5.237 2.144v-2.139a7.609 7.609 0 0 1-3.707-1.518l-1.53 1.513Zm12.379 0-1.53-1.513a7.615 7.615 0 0 1-3.707 1.518v2.14a9.767 9.767 0 0 0 5.237-2.145Z" opacity=".5"/>
  <path fill="#fff" d="M20.049 19.407a5.711 5.711 0 0 0 1.018-2.428H19.38c-.106.45-.285.87-.525 1.25l1.193 1.178Zm1.018-4.31a5.72 5.72 0 0 0-1.018-2.428l-1.193 1.179c.24.38.42.8.525 1.25h1.686Zm-2.365-3.758a5.85 5.85 0 0 0-2.456-1.007V12c.454.104.88.282 1.264.518l1.192-1.178Zm-4.36-1.007a5.85 5.85 0 0 0-2.456 1.007l1.192 1.178c.384-.236.81-.414 1.264-.518v-1.667ZM10.54 12.67a5.711 5.711 0 0 0-1.019 2.428h1.687c.105-.45.285-.87.524-1.25L10.54 12.67Zm-1.02 4.31a5.717 5.717 0 0 0 1.019 2.428l1.192-1.178c-.24-.38-.42-.8-.524-1.25H9.52Zm2.365 3.759a5.85 5.85 0 0 0 2.456 1.006v-1.666a4.212 4.212 0 0 1-1.264-.519l-1.192 1.179Zm6.816 0-1.192-1.179a4.17 4.17 0 0 1-1.264.518v1.667a5.85 5.85 0 0 0 2.456-1.006Z"/>
  <path fill="#fff" fill-rule="evenodd" d="M48.036 14.943c.508.352.915.804 1.22 1.356.305.554.457 1.156.457 1.81v.037a3.74 3.74 0 0 1-.305 1.498c-.203.472-.483.88-.839 1.226a4.032 4.032 0 0 1-1.239.82c-.47.2-.972.3-1.506.3h-3.793l.915-2.26h2.878c.445 0 .823-.154 1.134-.462.312-.308.467-.681.467-1.122v-.037c0-.44-.155-.814-.467-1.122a1.555 1.555 0 0 0-1.134-.461h-4.67v5.465h-2.288V8.8h6.024a3.876 3.876 0 0 1 2.755 1.13c.35.352.626.76.83 1.225.202.465.304.96.304 1.489v.037c0 .428-.067.833-.2 1.216a3.996 3.996 0 0 1-.543 1.045Zm-2.011-3.42c.311.308.467.681.467 1.12v.039c0 .44-.156.813-.467 1.12-.312.309-.69.463-1.135.463h-3.736V11.06h3.736c.445 0 .823.154 1.135.462ZM51.696 8.8v13.19h2.288V8.8h-2.288Zm14.145 3.75v9.441h-2.288v-4.71c0-.754-.267-1.395-.8-1.923a2.662 2.662 0 0 0-1.945-.792 2.763 2.763 0 0 0-1.945.792 2.602 2.602 0 0 0-.8 1.922c0 .754.266 1.376.8 1.904.254.263.55.461.887.593.337.133.69.198 1.058.198.368 0 .724-.062 1.03-.188l.82 2.017c-.586.288-1.265.433-2.04.433a4.788 4.788 0 0 1-1.936-.386 4.675 4.675 0 0 1-1.534-1.065 4.903 4.903 0 0 1-1.01-1.583 5.12 5.12 0 0 1-.363-1.922c0-.678.12-1.338.362-1.94a4.896 4.896 0 0 1 1.01-1.583 4.694 4.694 0 0 1 1.535-1.065 4.797 4.797 0 0 1 1.935-.387c.623 0 1.175.094 1.659.283.482.188.908.427 1.277.716v-.754h2.287v-.001Zm10.389 8.235v.001Zm-1.62-1.6 1.62 1.6a5.05 5.05 0 0 1-1.601 1.064 5.004 5.004 0 0 1-1.963.387 5.032 5.032 0 0 1-3.565-1.451 4.99 4.99 0 0 1-1.077-1.583 4.79 4.79 0 0 1-.391-1.922c0-.678.13-1.338.39-1.94a4.973 4.973 0 0 1 1.078-1.584 5.049 5.049 0 0 1 1.601-1.065 5.002 5.002 0 0 1 1.964-.386 5.04 5.04 0 0 1 3.565 1.451l-1.621 1.602a2.662 2.662 0 0 0-1.945-.791c-.763 0-1.385.263-1.944.791a2.601 2.601 0 0 0-.8 1.922c0 .755.266 1.376.8 1.904a2.707 2.707 0 0 0 1.945.792c.775 0 1.423-.264 1.944-.792Zm7.32-1.905 4.766 4.71h-3.222l-3.164-3.127v3.128h-2.288V8.8h2.288v6.877l3.146-3.11h3.24l-4.765 4.711Zm12.982-4.589a4.995 4.995 0 0 0-1.963-.386 5.02 5.02 0 0 0-1.963.386 5.049 5.049 0 0 0-1.602 1.065 4.96 4.96 0 0 0-1.077 1.583 4.881 4.881 0 0 0-.391 1.94c0 .68.13 1.32.391 1.923a4.99 4.99 0 0 0 2.678 2.647c.61.258 1.266.387 1.964.387s1.353-.13 1.963-.387a5.045 5.045 0 0 0 1.601-1.064 4.98 4.98 0 0 0 1.078-1.583c.26-.603.39-1.231.39-1.922 0-.69-.13-1.338-.39-1.94a4.988 4.988 0 0 0-2.679-2.649Zm-3.907 2.667a2.661 2.661 0 0 1 1.944-.792c.737 0 1.385.264 1.945.792.534.527.8 1.18.8 1.922a2.58 2.58 0 0 1-.8 1.903 2.678 2.678 0 0 1-.896.594 2.8 2.8 0 0 1-1.049.198 2.88 2.88 0 0 1-1.058-.198 2.467 2.467 0 0 1-.886-.594c-.534-.527-.801-1.149-.801-1.903s.267-1.395.8-1.922Zm17.613-2.79v9.423h-2.287v-.716a4.526 4.526 0 0 1-1.163.706 3.7 3.7 0 0 1-1.449.274 4.038 4.038 0 0 1-1.697-.349 3.936 3.936 0 0 1-1.305-.952 4.28 4.28 0 0 1-.84-1.413 5.017 5.017 0 0 1-.295-1.733v-5.24h2.288v5.24c0 .59.222 1.105.667 1.545.432.427.953.64 1.563.64.609 0 1.15-.213 1.582-.64.432-.428.648-.942.648-1.546V12.57h2.288Zm5.49 9.423h2.096l-.571-2.261h-1.526a.808.808 0 0 1-.59-.245.815.815 0 0 1-.248-.603v-2.92h1.906l-.571-2.262h-1.335v-3.6l-2.288.566v8.215c0 .427.083.83.248 1.206.165.377.388.707.668.99a3.09 3.09 0 0 0 2.211.914Zm91.942-.292a7.069 7.069 0 0 0 2.211-1.48l-1.621-1.582a4.55 4.55 0 0 1-1.506.998 4.778 4.778 0 0 1-1.791.34 4.682 4.682 0 0 1-1.773-.34 4.54 4.54 0 0 1-1.506-.998 4.59 4.59 0 0 1-1.02-1.498 4.505 4.505 0 0 1-.353-1.762c0-.616.118-1.2.353-1.753a4.62 4.62 0 0 1 1.02-1.489c.444-.44.947-.775 1.506-1.008a4.53 4.53 0 0 1 1.773-.348c.635 0 1.232.116 1.791.348.56.233 1.061.569 1.506 1.008l1.621-1.601a7.059 7.059 0 0 0-2.211-1.48 6.872 6.872 0 0 0-2.707-.537 6.987 6.987 0 0 0-4.91 2.007 6.899 6.899 0 0 0-1.486 2.186 6.636 6.636 0 0 0-.544 2.666c0 .943.182 1.832.544 2.667a6.893 6.893 0 0 0 1.486 2.186 6.988 6.988 0 0 0 2.212 1.47 6.804 6.804 0 0 0 2.698.537 6.83 6.83 0 0 0 2.707-.537ZM131.207 8.8h2.288v2.261h-2.288v-2.26Zm0 13.191V12.57h2.288v9.422h-2.288Zm-1.791-2.261v2.261h-7.53V8.819h2.287v10.91h5.243Zm15.547 3.241c.26-.603.391-1.244.391-1.922v-8.48h-2.288v.735a5.396 5.396 0 0 0-1.334-.726c-.509-.194-1.067-.292-1.754-.292s-1.319.13-1.897.387a4.436 4.436 0 0 0-1.487 1.064 4.9 4.9 0 0 0-.963 1.583 5.442 5.442 0 0 0-.343 1.941c0 .69.134 1.338.4 1.94.267.604.63 1.131 1.087 1.584a5.027 5.027 0 0 0 3.545 1.451h.039a4.97 4.97 0 0 0 1.849-.34l-.858-2.11a2.682 2.682 0 0 1-1.03.188c-.737 0-1.385-.263-1.944-.791a2.64 2.64 0 0 1-.8-1.922c0-.729.266-1.369.8-1.922.559-.528 1.182-.792 1.944-.792.763 0 1.411.264 1.945.792.534.553.801 1.193.801 1.922v3.788a2.58 2.58 0 0 1-.801 1.903c-.521.54-1.17.81-1.945.81-.508 0-.966-.125-1.372-.376l-1.658 1.62a4.937 4.937 0 0 0 3.031 1.017 4.873 4.873 0 0 0 1.963-.395 5.187 5.187 0 0 0 1.602-1.074c.457-.452.816-.98 1.077-1.583Zm7.461-10.666c.623 0 1.189.116 1.697.348.508.233.943.553 1.305.961.362.409.642.883.839 1.423.197.54.296 1.118.296 1.733v5.22h-2.287v-5.22c0-.301-.057-.584-.172-.847a2.274 2.274 0 0 0-.496-.716 2.143 2.143 0 0 0-1.563-.641c-.609 0-1.15.213-1.582.64a2.12 2.12 0 0 0-.648 1.564v5.22h-2.288V8.8h2.288v4.522a4.447 4.447 0 0 1 1.163-.735 3.588 3.588 0 0 1 1.449-.282h-.001Zm9.246 9.686h2.097l-.572-2.261h-1.525a.81.81 0 0 1-.591-.245.815.815 0 0 1-.248-.603v-2.92h1.907l-.572-2.262h-1.335v-3.6l-2.287.566v8.215c0 .427.083.83.248 1.206.165.377.387.707.667.99a3.09 3.09 0 0 0 2.211.914Zm3.89-13.19h2.287v2.26h-2.287v-2.26Zm0 13.19V12.57h2.287v9.422h-2.287Zm11.246-9.338a4.035 4.035 0 0 0-1.696-.348 3.7 3.7 0 0 0-1.449.273 4.534 4.534 0 0 0-1.163.706v-.716h-2.287v9.422h2.287v-5.22c0-.615.217-1.136.649-1.563a2.18 2.18 0 0 1 1.582-.641c.61 0 1.131.213 1.563.64.445.415.667.937.667 1.565v5.22h2.288v-5.22a5.02 5.02 0 0 0-.296-1.734 4.39 4.39 0 0 0-.839-1.423 3.88 3.88 0 0 0-1.306-.96Zm14.107 8.396c0 .678-.13 1.32-.391 1.922a4.962 4.962 0 0 1-1.077 1.583 5.19 5.19 0 0 1-1.601 1.074 4.896 4.896 0 0 1-1.963.396 4.933 4.933 0 0 1-3.032-1.017l1.659-1.621c.406.251.864.377 1.372.377.775 0 1.423-.27 1.945-.81.534-.529.8-1.162.8-1.904v-3.788c0-.729-.266-1.369-.8-1.922a2.663 2.663 0 0 0-1.945-.792c-.763 0-1.385.264-1.944.792-.534.553-.801 1.193-.801 1.922 0 .729.267 1.395.801 1.922.559.528 1.207.791 1.944.791.381 0 .725-.062 1.03-.188l.857 2.11a4.981 4.981 0 0 1-1.849.34h-.038a5.027 5.027 0 0 1-3.545-1.451 5.11 5.11 0 0 1-1.087-1.583 4.74 4.74 0 0 1-.4-1.94c0-.692.114-1.339.343-1.942.229-.603.549-1.13.963-1.583a4.426 4.426 0 0 1 1.487-1.064 4.612 4.612 0 0 1 1.897-.387c.686 0 1.245.098 1.753.292.508.195.953.437 1.335.726v-.735h2.287v8.48Zm23.6-8.744a5.037 5.037 0 0 1 3.565 1.451c.457.453.817.98 1.077 1.583s.391 1.25.391 1.94c0 .692-.13 1.32-.391 1.923a4.962 4.962 0 0 1-1.077 1.583 5.042 5.042 0 0 1-3.565 1.451 5.028 5.028 0 0 1-3.564-1.451 4.985 4.985 0 0 1-1.078-1.583 4.803 4.803 0 0 1-.391-1.922c0-.678.131-1.338.391-1.94a4.98 4.98 0 0 1 1.078-1.584 5.045 5.045 0 0 1 3.564-1.451Zm0 2.261c-.762 0-1.41.264-1.944.792a2.601 2.601 0 0 0-.801 1.922c0 .754.267 1.375.801 1.903.254.264.549.462.887.594a2.87 2.87 0 0 0 1.058.198c.368 0 .718-.066 1.048-.198.331-.132.63-.33.896-.594a2.58 2.58 0 0 0 .801-1.903c0-.742-.267-1.395-.801-1.922-.559-.528-1.207-.792-1.944-.792h-.001Zm13.42-1.913a4.035 4.035 0 0 0-1.696-.348 3.7 3.7 0 0 0-1.449.273 4.534 4.534 0 0 0-1.163.706v-.716h-2.287v9.422h2.287v-5.22c0-.615.217-1.136.649-1.563a2.18 2.18 0 0 1 1.582-.641c.61 0 1.131.213 1.563.64.445.415.667.937.667 1.565v5.22h2.288v-5.22a5.02 5.02 0 0 0-.296-1.734 4.39 4.39 0 0 0-.839-1.423 3.88 3.88 0 0 0-1.306-.96Zm8.141 3.496c.152.038.406.125.762.264.356.138.722.33 1.097.575.374.245.702.55.982.913.279.365.419.798.419 1.3 0 .44-.073.842-.219 1.207a2.797 2.797 0 0 1-.639.96c-.279.277-.622.49-1.029.642-.407.15-.864.226-1.373.226a5.6 5.6 0 0 1-2.163-.415c-.667-.276-1.205-.615-1.611-1.018l1.582-1.564c.33.39.683.641 1.058.754.375.113.69.17.944.17.394 0 .686-.076.877-.227.19-.15.286-.333.286-.546a.517.517 0 0 0-.191-.396 1.696 1.696 0 0 0-.448-.282 3.285 3.285 0 0 0-.524-.18 6.379 6.379 0 0 1-.439-.122c-.152-.05-.409-.138-.772-.264a5.309 5.309 0 0 1-1.106-.546 3.813 3.813 0 0 1-.982-.904c-.279-.365-.419-.804-.419-1.32 0-.515.092-.983.277-1.366.184-.383.428-.7.733-.952a3.004 3.004 0 0 1 1.049-.556 4.198 4.198 0 0 1 1.22-.179c.649 0 1.198.075 1.649.226a5.73 5.73 0 0 1 1.115.49c.331.214.61.453.839.717l-1.601 1.582c-.255-.326-.534-.565-.839-.716a2.168 2.168 0 0 0-.972-.226 1.81 1.81 0 0 0-.791.188c-.261.126-.391.327-.391.604 0 .15.057.28.171.386.114.107.254.195.419.264.165.069.341.129.525.179.184.05.352.094.505.132Zm11.666-3.458a4.992 4.992 0 0 0-1.963-.386 5 5 0 0 0-1.963.386 4.977 4.977 0 0 0-2.679 2.648 4.876 4.876 0 0 0-.391 1.94c0 .68.13 1.32.391 1.923a4.999 4.999 0 0 0 2.679 2.647 4.99 4.99 0 0 0 1.963.387c.698 0 1.353-.13 1.963-.387a4.994 4.994 0 0 0 2.679-2.648 4.75 4.75 0 0 0 .391-1.921 4.85 4.85 0 0 0-.391-1.94 5 5 0 0 0-2.679-2.649Zm-3.907 2.667a2.66 2.66 0 0 1 1.944-.792c.738 0 1.385.264 1.945.792.534.527.801 1.18.801 1.922a2.58 2.58 0 0 1-.801 1.903 2.684 2.684 0 0 1-.896.594c-.331.132-.68.198-1.049.198-.368 0-.721-.066-1.058-.198a2.466 2.466 0 0 1-.886-.594c-.534-.527-.801-1.149-.801-1.903s.267-1.395.801-1.922Zm8.769 6.633V8.8h2.287v13.19h-2.287Zm7.166-2.808a2.338 2.338 0 0 1-.553-.773h7.397a4.6 4.6 0 0 0 .133-1.13c0-.69-.13-1.338-.391-1.94a4.966 4.966 0 0 0-1.077-1.584 5.037 5.037 0 0 0-3.564-1.451c-.699 0-1.354.13-1.964.386a5.045 5.045 0 0 0-1.601 1.065 4.96 4.96 0 0 0-1.077 1.583 4.876 4.876 0 0 0-.391 1.94c0 .68.13 1.32.391 1.923a4.982 4.982 0 0 0 2.678 2.647c.61.258 1.264.387 1.964.387.762 0 1.467-.148 2.116-.443a4.792 4.792 0 0 0 1.658-1.234l-2.383-.942a2.699 2.699 0 0 1-1.391.358 2.8 2.8 0 0 1-1.049-.198 2.683 2.683 0 0 1-.896-.594Zm0-3.825c.559-.528 1.207-.792 1.945-.792.763 0 1.411.264 1.945.792.241.238.425.502.552.791h-4.994c.126-.289.311-.553.552-.791Z" clip-rule="evenodd"/>
</svg>
