<?xml version="1.0" encoding="UTF-8"?>
<svg xmlns="http://www.w3.org/2000/svg" viewBox="0 0 241.27 63.04">
  <defs>
    <style>
      .cls-1 {
        fill: #ed7425;
      }

      .cls-2 {
        fill: #306e8d;
      }

      .cls-3 {
        isolation: isolate;
      }

      .cls-4 {
        fill: #002d5d;
      }

      .cls-5 {
        fill: #f7a51e;
        mix-blend-mode: multiply;
      }
    </style>
  </defs>
  <g class="cls-3">
    <g id="Layer_2" data-name="Layer 2">
      <g id="Layer_1-2" data-name="Layer 1">
        <g>
          <path class="cls-4" d="m107.34,61.94v-25.67h-28.78v25.67h-12.97V1h12.97v23.94h28.78V1h13.06v60.94h-13.06Z"/>
          <path class="cls-4" d="m129.45,31.52c0-18.82,14.16-31.52,32.52-31.52,13.34,0,21.1,7.22,25.4,14.89l-11.15,5.48c-2.56-4.93-8.04-8.86-14.25-8.86-11.15,0-19.18,8.5-19.18,20.01s8.04,20.01,19.18,20.01c6.21,0,11.69-3.93,14.25-8.86l11.15,5.39c-4.29,7.58-12.06,14.98-25.4,14.98-18.36,0-32.52-12.79-32.52-31.52Z"/>
          <path class="cls-4" d="m190.93,53.35l7.13-10.14c4.29,4.48,10.96,8.31,19.37,8.31,7.22,0,10.6-3.2,10.6-6.76,0-10.6-35.08-3.2-35.08-26.13C192.94,8.5,201.71.09,216.05.09c9.68,0,17.72,2.92,23.75,8.5l-7.22,9.68c-4.93-4.57-11.51-6.67-17.72-6.67-5.48,0-8.59,2.38-8.59,6.03,0,9.59,34.99,3.11,34.99,25.85,0,11.15-8.04,19.55-24.39,19.55-11.78,0-20.19-3.93-25.95-9.68Z"/>
          <path class="cls-2" d="m31.82,39.81c-.17.08-.33.17-.5.25-15.1,7.22-20.65,15.06-23.37,21.88h7.98c2-3.56,4.69-7.37,8.3-11.32,3.35-3.65,5.88-7.26,7.58-10.81Z"/>
          <path class="cls-5" d="m36.18,24.3c.72,3.42.66,6.91-.19,10.44,4.35-3.2,7.12-7.1,8.25-11.67,1.56-6.31-.27-12.86-2.41-17.73-4.98-2.8-11.02-4.34-17.81-4.34h-7.82c6.12,3.48,17.45,11.37,19.97,23.29Z"/>
          <path class="cls-4" d="m53.77,30.43c-3.98,5.31-10.59,8.57-19.66,9.71-1.8,3.95-4.55,7.95-8.24,11.97-3.12,3.4-5.51,6.71-7.35,9.83h5.6c19,0,32.25-12.06,32.25-30.51,0-1.68-.11-3.31-.33-4.89-.57,1.3-1.31,2.61-2.27,3.89Z"/>
          <path class="cls-4" d="m30.38,38.07c.97-.46,1.9-.95,2.77-1.46,1.39-4.04,1.69-8,.88-11.84C30.84,9.69,11.59,1.1,11.39,1.01h0s-11.4,0-11.4,0v60.94h5.6c2.73-7.26,8.46-16.07,24.78-23.87Z"/>
          <path class="cls-1" d="m46.39,23.59c-1.34,5.45-4.74,10.01-10.1,13.64,7.06-1.29,12.24-4.07,15.43-8.3,1.85-2.46,2.77-5.1,3.2-7.4-1.8-5.79-5.2-10.58-9.84-14.07,1.67,4.73,2.71,10.45,1.31,16.14Z"/>
        </g>
      </g>
    </g>
  </g>
</svg>