<?xml version="1.0" encoding="UTF-8"?>
<!DOCTYPE svg PUBLIC "-//W3C//DTD SVG 1.1//EN" "http://www.w3.org/Graphics/SVG/1.1/DTD/svg11.dtd">
<svg version="1.1" xmlns="http://www.w3.org/2000/svg" xmlns:xlink="http://www.w3.org/1999/xlink" x="0" y="0" width="800" height="160" viewBox="0, 0, 800, 160">
  <g id="Background">
    <rect x="0" y="0" width="800" height="160" fill="#000000" fill-opacity="0"/>
  </g>
  <g id="NYCDOE">
    <path d="M8.958,7.458 C9.666,6.729 10.811,7.055 11.713,6.937 C23.253,6.986 34.793,6.944 46.333,6.965 C61.718,22.141 77.033,37.38 92.39,52.577 C92.397,40.392 92.383,28.213 92.397,16.028 C95.52,13.072 98.517,9.991 101.591,6.986 C113.916,6.937 126.24,6.958 138.557,6.979 C141.555,10.06 144.72,12.961 147.662,16.083 C147.683,34.376 147.585,52.661 147.71,70.953 C147.814,95.317 147.821,119.681 147.697,144.045 C144.574,146.98 141.604,150.075 138.502,153.038 C126.185,153.052 113.867,153.066 101.543,153.032 C86.262,137.8 70.857,122.693 55.549,107.482 C55.563,119.528 55.625,131.589 55.507,143.636 C52.884,147.098 49.338,149.874 46.333,153.052 C34.301,153.032 22.268,153.08 10.235,153.032 C9.201,153.122 8.576,152.15 7.869,151.567 C5.35,148.979 2.747,146.467 0.194,143.913 C0.194,101.319 0.208,58.726 0.187,16.132 C3.122,13.252 5.988,10.303 8.958,7.458 z" fill="#80B24D"/>
    <path d="M156.919,6.965 C169.25,6.979 181.581,6.903 193.913,7.007 C196.896,10.095 200.019,13.051 203.045,16.104 C203.066,22.204 203.017,28.311 203.066,34.41 C209.221,40.427 215.327,46.499 221.406,52.584 C227.575,46.519 233.717,40.42 239.872,34.334 C239.914,28.234 239.837,22.134 239.886,16.035 C243.008,13.044 245.992,9.921 249.143,6.958 C261.426,6.958 273.715,6.965 285.998,6.951 C289.072,10.025 292.188,13.044 295.248,16.132 C295.255,22.183 295.248,28.241 295.255,34.292 C295.248,46.519 295.29,58.753 295.234,70.981 C279.836,86.122 264.514,101.34 249.164,116.531 C249.06,125.684 249.427,134.892 248.99,144.017 C246.069,147.133 242.946,150.061 239.9,153.052 C227.575,153.038 215.251,153.08 202.927,153.032 C199.929,149.95 196.82,146.98 193.795,143.927 C193.788,134.802 193.808,125.677 193.781,116.551 C178.396,101.375 163.116,86.108 147.71,70.953 C147.585,52.661 147.683,34.376 147.662,16.083 C150.743,13.044 153.817,9.991 156.919,6.965 z" fill="#FF9933"/>
    <path d="M322.811,6.986 C353.539,6.937 384.273,6.972 415.007,6.965 C424.32,16.076 433.549,25.271 442.786,34.466 C442.772,43.535 442.765,52.605 442.786,61.675 C439.989,64.451 437.172,67.219 434.354,69.974 C433.681,70.828 432.585,70.911 431.592,70.87 C416.853,70.772 402.121,70.883 387.382,70.821 C387.389,67.816 387.396,64.805 387.382,61.8 C375.099,61.807 362.823,61.786 350.548,61.8 C350.575,73.93 350.575,86.06 350.548,98.19 C362.823,98.238 375.106,98.19 387.382,98.218 C387.396,95.192 387.396,92.173 387.382,89.155 C402.766,89.106 418.158,89.106 433.542,89.148 C436.623,92.215 439.711,95.275 442.792,98.342 C442.751,107.419 442.786,116.489 442.772,125.566 C433.646,134.746 424.341,143.754 415.243,152.976 C384.453,153.136 353.663,153.025 322.867,153.032 C313.582,144.01 304.477,134.809 295.206,125.774 C295.192,107.509 295.151,89.245 295.234,70.981 C295.29,58.753 295.248,46.519 295.255,34.292 C304.408,25.153 313.637,16.097 322.811,6.986 z" fill="#6699CC"/>
    <path d="M477.192,53.158 C482.918,53.151 488.644,53.137 494.371,53.151 C499.574,53.173 505.06,54.876 508.552,58.92 C512.589,63.501 513.43,70.04 512.709,75.901 C512.164,80.638 509.994,85.374 506.014,88.174 C502.274,90.881 497.531,91.673 493.013,91.595 C487.746,91.574 482.48,91.595 477.213,91.588 C477.177,78.778 477.22,65.968 477.192,53.158 M487.421,61.72 C487.329,68.775 487.421,75.83 487.365,82.886 C491.119,82.829 495.127,83.338 498.605,81.585 C501.193,80.291 502.451,77.372 502.649,74.607 C503.002,70.974 502.741,66.697 499.758,64.144 C496.364,61.246 491.564,61.84 487.421,61.72 z" fill="#013366"/>
    <path d="M515.679,110.328 C519.193,108.575 523.35,108.829 527.153,109.232 C527.535,111.339 527.294,113.488 527.217,115.616 C525.654,115.63 524.042,115.348 522.53,115.8 C521.109,116.422 521.476,118.225 521.285,119.462 C523.166,119.476 525.046,119.483 526.934,119.49 C526.92,121.477 526.92,123.47 526.899,125.464 C525.053,125.464 523.215,125.464 521.384,125.471 C521.37,132.781 521.377,140.091 521.377,147.401 C518.274,147.45 515.17,147.422 512.074,147.408 C512.06,140.091 512.074,132.774 512.06,125.457 C510.596,125.464 509.14,125.471 507.684,125.478 C507.648,123.477 507.648,121.484 507.627,119.49 C509.09,119.483 510.554,119.476 512.031,119.476 C512.137,116.196 512.456,112.117 515.679,110.328 z" fill="#013366"/>
    <path d="M638.419,55.194 C641.501,55.194 644.591,55.187 647.673,55.202 C647.652,58.015 647.652,60.829 647.652,63.643 C649.582,63.635 651.519,63.635 653.456,63.699 C653.364,65.679 653.35,67.665 653.329,69.645 C651.434,69.63 649.547,69.63 647.652,69.645 C647.744,74.105 647.482,78.573 647.765,83.027 C648.338,85.579 651.512,84.759 653.399,84.851 C653.364,87.099 653.357,89.347 653.357,91.602 C649.575,91.737 645.581,92.373 641.982,90.867 C639.48,89.807 638.645,86.922 638.511,84.441 C638.278,79.507 638.476,74.572 638.405,69.637 C636.878,69.637 635.358,69.63 633.838,69.637 C633.803,67.644 633.803,65.657 633.789,63.664 C635.33,63.65 636.871,63.643 638.419,63.643 C638.405,60.822 638.412,58.008 638.419,55.194 z" fill="#013366"/>
    <path d="M772.959,55.202 C776.049,55.187 779.138,55.187 782.234,55.202 C782.234,58.008 782.241,60.822 782.213,63.635 C784.122,63.643 786.031,63.635 787.94,63.657 C787.932,65.643 787.932,67.63 787.918,69.623 C786.024,69.63 784.129,69.637 782.234,69.637 C782.362,74.233 781.994,78.856 782.39,83.437 C783.302,85.579 786.123,84.724 787.932,84.816 C787.932,87.071 787.94,89.326 787.932,91.581 C784.094,91.772 780.022,92.373 776.381,90.825 C773.949,89.715 773.101,86.887 773.037,84.42 C772.896,79.492 773.03,74.572 772.98,69.652 C771.46,69.503 769.644,69.998 768.307,69.341 C768.124,67.453 768.244,65.551 768.23,63.657 C769.806,63.65 771.39,63.643 772.98,63.635 C772.987,60.822 772.987,58.015 772.959,55.202 z" fill="#013366"/>
    <path d="M520.393,66.612 C525.773,61.84 534.695,61.444 540.322,65.99 C544.366,69.312 545.667,74.805 545.54,79.832 C538.562,79.881 531.592,79.789 524.614,79.874 C525.073,81.684 525.455,83.762 527.109,84.901 C530.001,87.142 534.596,86.322 536.47,83.14 C539.34,83.105 542.217,83.112 545.094,83.161 C543.992,86.527 541.666,89.545 538.329,90.896 C532.419,93.405 524.861,92.917 519.906,88.598 C513.847,82.942 513.988,71.97 520.393,66.612 M524.663,74.692 C528.566,74.742 532.468,74.735 536.363,74.699 C535.904,71.787 533.663,68.775 530.418,69.065 C527.279,69.051 525.314,71.935 524.663,74.692 z" fill="#013366"/>
    <path d="M557.742,66.873 C561.503,61.338 570.276,61.698 574.44,66.541 C577.649,70.217 578.526,75.385 578.151,80.122 C577.763,84.434 575.762,89.022 571.746,91.093 C567.335,93.483 561.361,92.613 558.152,88.633 C558.237,92.734 558.166,96.841 558.201,100.941 C555.112,100.941 552.015,100.941 548.919,100.934 C548.961,88.506 548.961,76.085 548.919,63.657 C551.881,63.642 554.843,63.642 557.805,63.65 C557.784,64.724 557.763,65.792 557.742,66.873 M561.1,70.458 C557.275,72.699 557.424,78.05 558.484,81.804 C559.354,85.551 564.825,86.618 567.137,83.635 C569.322,80.574 569.484,76.276 568.07,72.861 C566.982,70.224 563.581,69.022 561.1,70.458 z" fill="#013366"/>
    <path d="M587.073,64.201 C592.128,62.328 597.96,62.299 603.043,64.081 C606.451,65.233 608.324,68.888 608.048,72.352 C608.402,78.757 607.129,85.402 609.116,91.61 C606.027,91.567 602.937,91.574 599.855,91.617 C599.714,90.987 599.438,89.729 599.296,89.1 C595.451,92.5 589.611,93.334 584.91,91.369 C579.353,89.121 578.724,80.15 583.913,77.166 C588.141,74.742 593.224,75.194 597.791,73.936 C599.459,73.49 599.77,71.058 598.512,70.019 C595.875,67.743 590.94,68.535 590.064,72.246 C587.186,72.26 584.309,72.267 581.432,72.218 C581.714,68.768 583.708,65.41 587.073,64.201 M591.301,80.821 C589.491,81.712 589.088,84.356 590.558,85.749 C592.361,87.113 595.026,86.965 596.914,85.848 C599.233,84.264 599.063,81.154 599.24,78.672 C596.624,79.506 593.789,79.627 591.301,80.821 z" fill="#013366"/>
    <path d="M622.393,68.224 C624.16,64.159 628.918,62.342 633.103,63.296 C633.06,66.06 633.075,68.832 633.089,71.61 C630.911,71.249 628.578,70.79 626.479,71.716 C624.245,72.578 622.682,74.848 622.626,77.237 C622.484,82.016 622.633,86.802 622.562,91.588 C619.48,91.588 616.398,91.581 613.322,91.588 C613.287,82.278 613.344,72.967 613.294,63.657 C616.284,63.635 619.282,63.635 622.279,63.664 C622.315,65.184 622.364,66.704 622.393,68.224 z" fill="#013366"/>
    <path d="M665.884,67.439 C669.242,61.628 679.055,60.998 682.342,67.163 C685.573,62.639 692.254,61.522 696.962,64.265 C700.15,66.265 700.97,70.323 701.027,73.823 C701.098,79.74 701.041,85.664 701.055,91.588 C697.959,91.588 694.862,91.588 691.766,91.588 C691.646,85.671 691.928,79.733 691.638,73.823 C691.469,71.44 689.023,69.828 686.753,70.507 C684.541,70.818 683.749,73.264 683.692,75.194 C683.516,80.652 683.685,86.117 683.622,91.574 C680.518,91.595 677.422,91.595 674.325,91.588 C674.276,86.109 674.339,80.638 674.304,75.159 C674.297,73.49 673.894,71.454 672.233,70.663 C670.536,70.076 668.281,70.436 667.298,72.076 C666.323,73.632 666.301,75.54 666.238,77.315 C666.202,82.08 666.273,86.838 666.224,91.602 C663.106,91.588 659.995,91.581 656.878,91.581 C656.864,82.271 656.871,72.96 656.871,63.65 C659.896,63.642 662.915,63.642 665.941,63.657 C665.927,64.915 665.905,66.173 665.884,67.439 z" fill="#013366"/>
    <path d="M708.273,67.835 C713.003,62.525 721.5,61.295 727.658,64.724 C732.953,67.658 734.819,74.056 734.741,79.754 C727.764,79.966 720.772,79.761 713.794,79.86 C714.219,81.606 714.537,83.586 716.05,84.766 C718.892,87.142 723.699,86.413 725.572,83.154 C728.464,83.105 731.362,83.105 734.261,83.169 C733.257,85.904 731.673,88.548 729.086,90.033 C723.755,93.207 716.658,93.179 711.249,90.203 C703.635,85.827 702.504,74.148 708.273,67.835 M713.809,74.699 C717.711,74.735 721.606,74.742 725.502,74.692 C725.049,71.857 722.985,68.952 719.839,69.058 C716.615,68.923 714.445,71.829 713.809,74.699 z" fill="#013366"/>
    <path d="M747.028,67.375 C750.436,62.632 757.555,61.43 762.468,64.448 C765.317,66.301 766.201,69.927 766.194,73.13 C766.194,79.28 766.208,85.431 766.172,91.588 C763.097,91.581 760.022,91.581 756.947,91.595 C756.834,85.89 757.067,80.178 756.841,74.473 C756.883,72.387 755.278,70.408 753.108,70.443 C750.181,69.871 747.573,72.366 747.445,75.222 C747.198,80.666 747.431,86.138 747.332,91.588 C744.257,91.588 741.182,91.588 738.107,91.581 C738.085,82.271 738.099,72.96 738.099,63.65 C741.097,63.65 744.101,63.642 747.099,63.65 C747.078,64.894 747.057,66.131 747.028,67.375 z" fill="#013366"/>
    <path d="M487.239,119.363 C492.435,117.751 498.557,118.84 502.544,122.657 C508.2,128.059 508.44,137.977 503.103,143.675 C498.43,148.694 490.278,149.571 484.368,146.319 C479.724,143.767 476.96,138.437 477.207,133.184 C477.066,127.033 481.265,121.039 487.239,119.363 M489.409,126.397 C485.867,129.084 485.853,134.52 487.472,138.302 C488.836,141.625 493.82,142.183 495.955,139.334 C498.133,136.245 498.182,131.911 496.599,128.553 C495.432,125.881 491.841,124.87 489.409,126.397 z" fill="#013366"/>
    <path d="M540.824,109.793 C551.139,109.793 561.46,109.764 571.775,109.807 C571.76,112.493 571.768,115.18 571.768,117.873 C564.839,117.887 557.918,117.866 550.99,117.88 C551.004,120.1 551.004,122.327 551.011,124.554 C557.325,124.547 563.638,124.54 569.951,124.561 C569.93,127.155 569.93,129.757 569.937,132.359 C563.623,132.344 557.31,132.344 550.997,132.366 C551.018,134.762 551.018,137.152 550.983,139.548 C558.109,139.591 565.235,139.534 572.354,139.569 C572.347,142.454 572.347,145.338 572.361,148.23 C561.842,148.244 551.323,148.244 540.803,148.223 C540.845,135.413 540.817,122.603 540.824,109.793 z" fill="#013366"/>
    <path d="M595.118,109.814 C598.236,109.771 601.346,109.778 604.464,109.8 C604.443,122.61 604.422,135.42 604.478,148.23 C601.502,148.244 598.533,148.244 595.556,148.222 C595.592,147.134 595.627,146.052 595.663,144.971 C591.435,151.17 581.17,149.912 577.656,143.634 C574.27,137.703 574.044,129.608 578.01,123.896 C581.813,118.382 591.039,117.802 595.146,123.267 C595.097,118.785 595.154,114.296 595.118,109.814 M587.9,126.922 C585.553,127.869 584.627,130.584 584.429,132.917 C584.266,135.54 584.627,138.459 586.444,140.488 C588.678,142.984 593.365,142.284 594.588,139.096 C595.761,136.091 595.769,132.528 594.588,129.531 C593.57,126.986 590.375,125.741 587.9,126.922 z" fill="#013366"/>
    <path d="M725.402,109.793 C728.492,109.786 731.581,109.771 734.671,109.807 C734.635,112.14 734.635,114.48 734.656,116.827 C731.567,116.848 728.478,116.855 725.395,116.841 C725.395,114.487 725.395,112.14 725.402,109.793 z" fill="#013366"/>
    <path d="M706.689,111.857 C709.786,111.836 712.882,111.836 715.979,111.864 C715.972,114.671 715.972,117.477 715.972,120.284 C717.873,120.291 719.782,120.291 721.691,120.312 C721.677,122.292 721.677,124.278 721.691,126.265 C719.775,126.272 717.866,126.265 715.958,126.279 C716.078,130.846 715.788,135.427 716.092,139.987 C716.99,142.206 719.825,141.4 721.698,141.521 C721.67,143.74 721.67,145.967 721.705,148.187 C717.916,148.385 713.9,149.007 710.281,147.53 C707.63,146.42 706.845,143.33 706.753,140.729 C706.633,135.907 706.739,131.093 706.718,126.272 C705.155,126.272 703.593,126.272 702.031,126.272 C702.031,124.285 702.031,122.299 702.031,120.312 C703.586,120.298 705.141,120.284 706.703,120.284 C706.711,117.47 706.718,114.663 706.689,111.857 z" fill="#013366"/>
    <path d="M648.755,121.174 C654.403,118.389 661.946,118.891 666.697,123.218 C668.776,125.084 669.744,127.806 670.182,130.499 C667.199,130.535 664.223,130.535 661.239,130.513 C660.653,125.862 653.788,125.133 651.759,129.071 C650.331,132.139 650.253,135.95 651.561,139.075 C652.784,142.065 656.906,142.857 659.394,141.012 C660.624,140.135 660.957,138.587 661.473,137.272 C664.456,137.251 667.446,137.236 670.437,137.3 C669.914,140.085 668.966,142.927 666.874,144.949 C663.049,148.845 657.019,149.75 651.879,148.512 C647.107,147.388 643.042,143.564 641.876,138.771 C640.158,132.302 642.548,124.356 648.755,121.174 z" fill="#013366"/>
    <path d="M677.506,121.585 C681.882,119.096 687.213,119.167 692.055,119.888 C695.343,120.383 698.736,122.398 699.563,125.826 C700.864,133.214 698.651,140.997 700.97,148.244 C697.845,148.23 694.728,148.258 691.61,148.215 C691.44,147.374 691.278,146.533 691.122,145.699 C687.284,149.226 681.26,149.983 676.552,147.919 C671.215,145.543 670.635,136.855 675.668,133.878 C679.846,131.411 684.894,131.835 689.454,130.626 C691.101,130.315 691.709,127.997 690.529,126.844 C687.969,124.342 682.738,125.126 681.911,128.937 C679.019,128.965 676.128,128.965 673.243,128.916 C673.59,126.017 674.862,123.076 677.506,121.585 M681.628,139.265 C680.61,142.8 685.127,144.165 687.722,142.998 C690.931,141.987 690.981,138.078 691.094,135.321 C688.012,136.6 683.332,135.83 681.628,139.265 z" fill="#013366"/>
    <path d="M749.206,119.966 C754.105,118.842 759.725,119.669 763.493,123.203 C769.396,128.421 769.813,138.474 764.546,144.271 C759.753,149.672 750.959,150.506 744.95,146.717 C740.093,143.726 737.788,137.646 738.594,132.111 C739.174,126.371 743.571,121.281 749.206,119.966 M751.284,126.901 C749.184,127.77 748.209,130.103 747.891,132.203 C747.523,134.896 747.721,137.915 749.411,140.156 C751.397,142.814 756.056,142.539 757.632,139.576 C759.442,136.268 759.456,131.878 757.434,128.661 C756.169,126.618 753.426,126.095 751.284,126.901 z" fill="#013366"/>
    <path d="M780.835,124.016 C784.101,119.407 790.795,118.262 795.702,120.772 C798.812,122.398 799.951,126.123 799.965,129.418 C800.028,135.688 799.951,141.959 800,148.223 C796.882,148.244 793.765,148.251 790.654,148.208 C790.718,143.118 790.654,138.021 790.725,132.931 C790.725,130.916 790.541,128.223 788.321,127.417 C785.295,126.01 781.52,128.173 781.273,131.51 C781.004,137.067 781.216,142.652 781.181,148.223 C778.063,148.244 774.939,148.244 771.821,148.223 C771.856,138.919 771.849,129.616 771.828,120.312 C774.847,120.277 777.865,120.284 780.891,120.298 C780.87,121.535 780.856,122.772 780.835,124.016 z" fill="#013366"/>
    <path d="M609.505,120.298 C612.58,120.284 615.662,120.284 618.745,120.305 C618.73,125.466 618.716,130.626 618.73,135.787 C618.794,137.618 618.9,139.916 620.71,140.927 C622.774,141.768 625.574,141.598 627.016,139.69 C628.281,138.226 628.345,136.19 628.352,134.359 C628.324,129.672 628.359,124.992 628.338,120.312 C631.427,120.277 634.517,120.277 637.606,120.312 C637.606,129.608 637.571,138.912 637.62,148.215 C634.609,148.244 631.604,148.244 628.592,148.223 C628.607,146.971 628.621,145.72 628.649,144.483 C625.319,149.233 618.334,150.379 613.457,147.445 C610.304,145.388 609.589,141.337 609.512,137.852 C609.462,131.998 609.498,126.151 609.505,120.298 z" fill="#013366"/>
    <path d="M725.402,120.298 C728.485,120.284 731.574,120.284 734.656,120.305 C734.642,129.608 734.614,138.912 734.671,148.215 C731.574,148.244 728.478,148.251 725.388,148.215 C725.409,138.912 725.388,129.601 725.402,120.298 z" fill="#013366"/>
  </g>
</svg>
